<svg width="24" height="24" viewBox="0 0 24 24" fill="none" xmlns="http://www.w3.org/2000/svg">
<g clip-path="url(#clip0_48_436)">
<path fill-rule="evenodd" clip-rule="evenodd" d="M10.6633 2.85476C11.4229 2.17508 12.5772 2.17508 13.3369 2.85476L13.3393 2.85697L21.6922 10.3805C22.7614 11.3131 22.0432 13 20.7001 13H20.0001V19C20.0001 20.1023 19.1024 21 18.0001 21H15.0001C13.8978 21 13.0001 20.1023 13.0001 19V15H11.0001V19C11.0001 20.1023 10.1024 21 9.00007 21H6.00007C4.89779 21 4.00007 20.1023 4.00007 19L4.00007 13H3.30007C1.91066 13 1.28723 11.2882 2.30372 10.3844L10.6633 2.85476ZM12.0034 4.34538L12.0001 4.345L11.9969 4.34524L4.52985 11.0709C4.36112 11.0247 4.25408 11.034 4.00007 11L4.52985 11.0709C4.52985 11.0709 3.97179 11.5685 3.6393 11.873C3.6368 11.8753 3.63426 11.8776 3.63169 11.8798L4.52985 11.0709C5.37732 11.3031 6.00007 12.0788 6.00007 13V19H9.00007V15C9.00007 13.8954 9.8955 13 11.0001 13H13.0001C14.1046 13 15.0001 13.8954 15.0001 15V19H18.0001V13C18.0001 12.0788 18.6228 11.3031 19.4703 11.0709L20.3699 11.8813L20.3793 11.8893C20.373 11.8839 20.3668 11.8785 20.3608 11.873C20.0027 11.5408 19.4703 11.0709 19.4703 11.0709L20.0001 11C19.8167 11 19.639 11.0247 19.4703 11.0709L12.0034 4.34538Z" fill="#808080"/>
</g>
<defs>
<clipPath id="clip0_48_436">
<rect width="24" height="24" fill="white"/>
</clipPath>
</defs>
</svg>
